# xmcd
#
# Track frame offsets:
#	150
#	15843
#	32870
#	58374
#	87301
#	114069
#
# Disc length: 1713 seconds
#
# Revision: 1
# Processed by: cddbd v1.5.1PL0 Copyright (c) Steve Scherf et al.
# Submitted via: audiograbber 1.83.01
#
DISCID=3f06af06
DTITLE=Cosmo and Tom - Rich In Paradise [CD-Single)
DYEAR=1999
DGENRE=Eurodance
TTITLE0=Rich In Paradise (Infinity Radio Mix)
TTITLE1=Rich In Paradise (Paradise Radio Mix)
TTITLE2=Rich In Paradise (Infinity Club Mix)
TTITLE3=Rich In Paradise (Paradise Club Mix)
TTITLE4=Rich In Paradise (Extended Mix)
TTITLE5=Dance In Paradise
EXTD=
EXTT0=
EXTT1=
EXTT2=
EXTT3=
EXTT4=
EXTT5=
PLAYORDER=
